<svg width="60" height="60" viewBox="0 0 60 60" fill="none" xmlns="http://www.w3.org/2000/svg">
<rect x="-0.000732422" width="60" height="60" rx="18" fill="#ECEAF3"/>
<path d="M20.6659 31.1667H28.8326V39.3333C28.8326 39.6428 28.9555 39.9395 29.1743 40.1583C29.3931 40.3771 29.6898 40.5 29.9993 40.5C30.3087 40.5 30.6054 40.3771 30.8242 40.1583C31.043 39.9395 31.1659 39.6428 31.1659 39.3333V31.1667H39.3326C39.642 31.1667 39.9388 31.0437 40.1576 30.825C40.3764 30.6062 40.4993 30.3094 40.4993 30C40.4993 29.6906 40.3764 29.3938 40.1576 29.175C39.9388 28.9562 39.642 28.8333 39.3326 28.8333H31.1659V20.6667C31.1659 20.3572 31.043 20.0605 30.8242 19.8417C30.6054 19.6229 30.3087 19.5 29.9993 19.5C29.6898 19.5 29.3931 19.6229 29.1743 19.8417C28.9555 20.0605 28.8326 20.3572 28.8326 20.6667V28.8333H20.6659C20.3565 28.8333 20.0598 28.9562 19.841 29.175C19.6222 29.3938 19.4993 29.6906 19.4993 30C19.4993 30.3094 19.6222 30.6062 19.841 30.825C20.0598 31.0437 20.3565 31.1667 20.6659 31.1667Z" fill="#AB54DB"/>
</svg>
