<svg width="241" height="75" viewBox="0 0 241 75" fill="none" xmlns="http://www.w3.org/2000/svg">
<path d="M59.6666 8.5H14.3333C11.2081 8.5 8.66663 11.0415 8.66663 14.1667V42.5C8.66663 45.6252 11.2081 48.1667 14.3333 48.1667H34.1666V56.6667H25.6666V62.3333H48.3333V56.6667H39.8333V48.1667H59.6666C62.7918 48.1667 65.3333 45.6252 65.3333 42.5V14.1667C65.3333 11.0415 62.7918 8.5 59.6666 8.5ZM14.3333 42.5V14.1667H59.6666L59.6695 42.5H14.3333Z" fill="#EF9A91"/>
<path d="M31.3334 36.8333L45.5 28.3333L31.3334 19.8333V36.8333Z" fill="#B7DBF9"/>
<path d="M88.048 55.076C87.928 54.94 87.788 54.82 87.628 54.716C87.468 54.604 87.288 54.508 87.088 54.428C86.888 54.348 86.672 54.284 86.44 54.236C86.216 54.188 85.976 54.164 85.72 54.164C84.976 54.164 84.428 54.308 84.076 54.596C83.732 54.876 83.56 55.26 83.56 55.748C83.56 56.084 83.64 56.348 83.8 56.54C83.968 56.732 84.228 56.888 84.58 57.008C84.932 57.128 85.38 57.252 85.924 57.38C86.532 57.508 87.056 57.66 87.496 57.836C87.936 58.012 88.276 58.252 88.516 58.556C88.756 58.852 88.876 59.256 88.876 59.768C88.876 60.16 88.8 60.5 88.648 60.788C88.496 61.076 88.284 61.316 88.012 61.508C87.74 61.7 87.416 61.844 87.04 61.94C86.664 62.028 86.252 62.072 85.804 62.072C85.364 62.072 84.94 62.028 84.532 61.94C84.132 61.844 83.752 61.708 83.392 61.532C83.032 61.348 82.696 61.116 82.384 60.836L82.804 60.152C82.956 60.312 83.136 60.464 83.344 60.608C83.56 60.744 83.796 60.868 84.052 60.98C84.316 61.092 84.596 61.18 84.892 61.244C85.196 61.3 85.508 61.328 85.828 61.328C86.508 61.328 87.036 61.204 87.412 60.956C87.796 60.708 87.988 60.34 87.988 59.852C87.988 59.5 87.892 59.22 87.7 59.012C87.508 58.796 87.22 58.62 86.836 58.484C86.452 58.348 85.98 58.216 85.42 58.088C84.828 57.952 84.328 57.8 83.92 57.632C83.512 57.464 83.204 57.244 82.996 56.972C82.796 56.692 82.696 56.324 82.696 55.868C82.696 55.34 82.824 54.896 83.08 54.536C83.344 54.168 83.704 53.892 84.16 53.708C84.616 53.516 85.14 53.42 85.732 53.42C86.108 53.42 86.456 53.46 86.776 53.54C87.104 53.612 87.404 53.72 87.676 53.864C87.956 54.008 88.216 54.188 88.456 54.404L88.048 55.076ZM90.1891 62V55.748H91.0051V62H90.1891ZM90.1891 54.44V53.24H91.0051V54.44H90.1891ZM92.8383 53.24H93.6543V60.584C93.6543 60.896 93.7103 61.1 93.8223 61.196C93.9343 61.292 94.0703 61.34 94.2303 61.34C94.3743 61.34 94.5183 61.324 94.6623 61.292C94.8063 61.26 94.9303 61.228 95.0343 61.196L95.1783 61.856C95.0263 61.92 94.8383 61.972 94.6143 62.012C94.3983 62.052 94.2103 62.072 94.0503 62.072C93.6823 62.072 93.3863 61.964 93.1623 61.748C92.9463 61.532 92.8383 61.236 92.8383 60.86V53.24ZM95.5679 60.2C95.5679 59.808 95.6799 59.472 95.9039 59.192C96.1279 58.904 96.4359 58.684 96.8279 58.532C97.2279 58.372 97.6879 58.292 98.2079 58.292C98.5119 58.292 98.8279 58.316 99.1559 58.364C99.4839 58.412 99.7759 58.484 100.032 58.58V58.052C100.032 57.524 99.8759 57.104 99.5639 56.792C99.2519 56.48 98.8199 56.324 98.2679 56.324C97.9319 56.324 97.5999 56.388 97.2719 56.516C96.9519 56.636 96.6159 56.816 96.2639 57.056L95.9519 56.48C96.3599 56.2 96.7599 55.992 97.1519 55.856C97.5439 55.712 97.9439 55.64 98.3519 55.64C99.1199 55.64 99.7279 55.86 100.176 56.3C100.624 56.74 100.848 57.348 100.848 58.124V61.016C100.848 61.128 100.872 61.212 100.92 61.268C100.968 61.316 101.044 61.344 101.148 61.352V62C101.06 62.008 100.984 62.016 100.92 62.024C100.856 62.032 100.808 62.032 100.776 62.024C100.576 62.016 100.424 61.952 100.32 61.832C100.216 61.712 100.16 61.584 100.152 61.448L100.14 60.992C99.8599 61.352 99.4959 61.632 99.0479 61.832C98.5999 62.024 98.1439 62.12 97.6799 62.12C97.2799 62.12 96.9159 62.036 96.5879 61.868C96.2679 61.692 96.0159 61.46 95.8319 61.172C95.6559 60.876 95.5679 60.552 95.5679 60.2ZM99.7559 60.68C99.8439 60.568 99.9119 60.46 99.9599 60.356C100.008 60.252 100.032 60.16 100.032 60.08V59.168C99.7599 59.064 99.4759 58.984 99.1799 58.928C98.8919 58.872 98.5999 58.844 98.3039 58.844C97.7199 58.844 97.2479 58.96 96.8879 59.192C96.5279 59.424 96.3479 59.74 96.3479 60.14C96.3479 60.372 96.4079 60.592 96.5279 60.8C96.6479 61 96.8239 61.168 97.0559 61.304C97.2879 61.432 97.5599 61.496 97.8719 61.496C98.2639 61.496 98.6279 61.42 98.9639 61.268C99.3079 61.116 99.5719 60.92 99.7559 60.68ZM105.311 62.12C104.863 62.12 104.447 62.036 104.063 61.868C103.679 61.692 103.347 61.456 103.067 61.16C102.787 60.856 102.567 60.508 102.407 60.116C102.255 59.724 102.179 59.304 102.179 58.856C102.179 58.272 102.311 57.736 102.575 57.248C102.847 56.76 103.219 56.372 103.691 56.084C104.163 55.788 104.699 55.64 105.299 55.64C105.915 55.64 106.451 55.788 106.907 56.084C107.371 56.38 107.735 56.772 107.999 57.26C108.263 57.74 108.395 58.268 108.395 58.844C108.395 58.908 108.395 58.972 108.395 59.036C108.395 59.092 108.391 59.136 108.383 59.168H103.031C103.071 59.616 103.195 60.016 103.403 60.368C103.619 60.712 103.895 60.988 104.231 61.196C104.575 61.396 104.947 61.496 105.347 61.496C105.755 61.496 106.139 61.392 106.499 61.184C106.867 60.976 107.123 60.704 107.267 60.368L107.975 60.56C107.847 60.856 107.651 61.124 107.387 61.364C107.123 61.604 106.811 61.792 106.451 61.928C106.099 62.056 105.719 62.12 105.311 62.12ZM103.007 58.58H107.627C107.595 58.124 107.471 57.724 107.255 57.38C107.047 57.036 106.771 56.768 106.427 56.576C106.091 56.376 105.719 56.276 105.311 56.276C104.903 56.276 104.531 56.376 104.195 56.576C103.859 56.768 103.583 57.04 103.367 57.392C103.159 57.736 103.039 58.132 103.007 58.58ZM109.234 58.892C109.234 58.3 109.354 57.76 109.594 57.272C109.842 56.776 110.182 56.38 110.614 56.084C111.046 55.788 111.538 55.64 112.09 55.64C112.61 55.64 113.074 55.78 113.482 56.06C113.898 56.332 114.222 56.664 114.454 57.056V53.24H115.27V61.016C115.27 61.128 115.294 61.212 115.342 61.268C115.39 61.316 115.462 61.344 115.558 61.352V62C115.398 62.024 115.274 62.032 115.186 62.024C115.018 62.016 114.87 61.948 114.742 61.82C114.614 61.692 114.55 61.552 114.55 61.4V60.788C114.302 61.196 113.966 61.52 113.542 61.76C113.118 62 112.678 62.12 112.222 62.12C111.79 62.12 111.39 62.032 111.022 61.856C110.662 61.68 110.346 61.44 110.074 61.136C109.81 60.832 109.602 60.488 109.45 60.104C109.306 59.712 109.234 59.308 109.234 58.892ZM114.454 59.852V57.92C114.35 57.632 114.182 57.372 113.95 57.14C113.718 56.9 113.454 56.712 113.158 56.576C112.87 56.432 112.582 56.36 112.294 56.36C111.958 56.36 111.654 56.432 111.382 56.576C111.11 56.712 110.874 56.9 110.674 57.14C110.482 57.38 110.334 57.652 110.23 57.956C110.126 58.26 110.074 58.572 110.074 58.892C110.074 59.228 110.13 59.548 110.242 59.852C110.362 60.156 110.53 60.428 110.746 60.668C110.962 60.9 111.21 61.08 111.49 61.208C111.77 61.336 112.074 61.4 112.402 61.4C112.61 61.4 112.826 61.36 113.05 61.28C113.274 61.2 113.486 61.092 113.686 60.956C113.894 60.812 114.066 60.644 114.202 60.452C114.338 60.26 114.422 60.06 114.454 59.852ZM119.819 62.12C119.371 62.12 118.955 62.036 118.571 61.868C118.187 61.692 117.855 61.456 117.575 61.16C117.295 60.856 117.075 60.508 116.915 60.116C116.763 59.724 116.687 59.304 116.687 58.856C116.687 58.272 116.819 57.736 117.083 57.248C117.355 56.76 117.727 56.372 118.199 56.084C118.671 55.788 119.207 55.64 119.807 55.64C120.423 55.64 120.959 55.788 121.415 56.084C121.879 56.38 122.243 56.772 122.507 57.26C122.771 57.74 122.903 58.268 122.903 58.844C122.903 58.908 122.903 58.972 122.903 59.036C122.903 59.092 122.899 59.136 122.891 59.168H117.539C117.579 59.616 117.703 60.016 117.911 60.368C118.127 60.712 118.403 60.988 118.739 61.196C119.083 61.396 119.455 61.496 119.855 61.496C120.263 61.496 120.647 61.392 121.007 61.184C121.375 60.976 121.631 60.704 121.775 60.368L122.483 60.56C122.355 60.856 122.159 61.124 121.895 61.364C121.631 61.604 121.319 61.792 120.959 61.928C120.607 62.056 120.227 62.12 119.819 62.12ZM117.515 58.58H122.135C122.103 58.124 121.979 57.724 121.763 57.38C121.555 57.036 121.279 56.768 120.935 56.576C120.599 56.376 120.227 56.276 119.819 56.276C119.411 56.276 119.039 56.376 118.703 56.576C118.367 56.768 118.091 57.04 117.875 57.392C117.667 57.736 117.547 58.132 117.515 58.58ZM127.282 56.468C126.738 56.484 126.258 56.636 125.842 56.924C125.434 57.212 125.146 57.608 124.978 58.112V62H124.162V55.748H124.93V57.248C125.146 56.808 125.43 56.452 125.782 56.18C126.142 55.908 126.522 55.756 126.922 55.724C127.002 55.716 127.07 55.712 127.126 55.712C127.19 55.712 127.242 55.716 127.282 55.724V56.468ZM133.198 62.12C132.686 62.12 132.21 62.036 131.77 61.868C131.33 61.7 130.95 61.444 130.63 61.1L130.966 60.524C131.318 60.852 131.67 61.092 132.022 61.244C132.382 61.388 132.762 61.46 133.162 61.46C133.65 61.46 134.046 61.364 134.35 61.172C134.654 60.972 134.806 60.688 134.806 60.32C134.806 60.072 134.73 59.884 134.578 59.756C134.434 59.62 134.222 59.512 133.942 59.432C133.67 59.344 133.342 59.252 132.958 59.156C132.526 59.036 132.162 58.912 131.866 58.784C131.578 58.648 131.358 58.48 131.206 58.28C131.062 58.072 130.99 57.804 130.99 57.476C130.99 57.068 131.09 56.732 131.29 56.468C131.498 56.196 131.778 55.992 132.13 55.856C132.49 55.712 132.89 55.64 133.33 55.64C133.81 55.64 134.234 55.716 134.602 55.868C134.97 56.02 135.27 56.232 135.502 56.504L135.106 57.056C134.882 56.8 134.614 56.612 134.302 56.492C133.998 56.364 133.658 56.3 133.282 56.3C133.026 56.3 132.782 56.336 132.55 56.408C132.318 56.472 132.126 56.584 131.974 56.744C131.83 56.896 131.758 57.108 131.758 57.38C131.758 57.604 131.814 57.78 131.926 57.908C132.038 58.028 132.206 58.132 132.43 58.22C132.654 58.3 132.93 58.388 133.258 58.484C133.73 58.612 134.142 58.744 134.494 58.88C134.846 59.008 135.118 59.176 135.31 59.384C135.502 59.592 135.598 59.884 135.598 60.26C135.598 60.844 135.378 61.3 134.938 61.628C134.498 61.956 133.918 62.12 133.198 62.12ZM142.203 62H141.387V58.508C141.387 57.804 141.263 57.276 141.015 56.924C140.767 56.564 140.411 56.384 139.947 56.384C139.643 56.384 139.339 56.464 139.035 56.624C138.739 56.776 138.475 56.988 138.243 57.26C138.019 57.524 137.859 57.828 137.763 58.172V62H136.947V53.24H137.763V57.164C138.011 56.7 138.355 56.332 138.795 56.06C139.243 55.78 139.719 55.64 140.223 55.64C140.583 55.64 140.887 55.704 141.135 55.832C141.391 55.96 141.595 56.148 141.747 56.396C141.907 56.636 142.023 56.92 142.095 57.248C142.167 57.568 142.203 57.932 142.203 58.34V62ZM146.607 62.12C146.159 62.12 145.743 62.036 145.359 61.868C144.983 61.692 144.655 61.456 144.375 61.16C144.103 60.856 143.891 60.512 143.739 60.128C143.587 59.736 143.511 59.324 143.511 58.892C143.511 58.444 143.587 58.028 143.739 57.644C143.891 57.252 144.107 56.908 144.387 56.612C144.667 56.308 144.995 56.072 145.371 55.904C145.755 55.728 146.171 55.64 146.619 55.64C147.067 55.64 147.479 55.728 147.855 55.904C148.231 56.072 148.559 56.308 148.839 56.612C149.119 56.908 149.335 57.252 149.487 57.644C149.639 58.028 149.715 58.444 149.715 58.892C149.715 59.324 149.639 59.736 149.487 60.128C149.335 60.512 149.119 60.856 148.839 61.16C148.567 61.456 148.239 61.692 147.855 61.868C147.479 62.036 147.063 62.12 146.607 62.12ZM144.339 58.904C144.339 59.368 144.439 59.792 144.639 60.176C144.847 60.552 145.123 60.852 145.467 61.076C145.811 61.292 146.191 61.4 146.607 61.4C147.023 61.4 147.403 61.288 147.747 61.064C148.091 60.84 148.367 60.536 148.575 60.152C148.783 59.76 148.887 59.336 148.887 58.88C148.887 58.416 148.783 57.992 148.575 57.608C148.367 57.224 148.091 56.92 147.747 56.696C147.403 56.472 147.023 56.36 146.607 56.36C146.191 56.36 145.811 56.476 145.467 56.708C145.131 56.94 144.859 57.248 144.651 57.632C144.443 58.008 144.339 58.432 144.339 58.904ZM158.741 55.748H159.545L156.857 62H156.149L154.841 58.892L153.545 62H152.837L150.149 55.748H150.941L153.221 61.16L154.373 58.34L153.317 55.76H154.049L154.841 57.788L155.645 55.76H156.365L155.321 58.34L156.473 61.16L158.741 55.748ZM163.12 62.12C162.672 62.12 162.256 62.036 161.872 61.868C161.488 61.692 161.156 61.456 160.876 61.16C160.596 60.856 160.376 60.508 160.216 60.116C160.064 59.724 159.988 59.304 159.988 58.856C159.988 58.272 160.12 57.736 160.384 57.248C160.656 56.76 161.028 56.372 161.5 56.084C161.972 55.788 162.508 55.64 163.108 55.64C163.724 55.64 164.26 55.788 164.716 56.084C165.18 56.38 165.544 56.772 165.808 57.26C166.072 57.74 166.204 58.268 166.204 58.844C166.204 58.908 166.204 58.972 166.204 59.036C166.204 59.092 166.2 59.136 166.192 59.168H160.84C160.88 59.616 161.004 60.016 161.212 60.368C161.428 60.712 161.704 60.988 162.04 61.196C162.384 61.396 162.756 61.496 163.156 61.496C163.564 61.496 163.948 61.392 164.308 61.184C164.676 60.976 164.932 60.704 165.076 60.368L165.784 60.56C165.656 60.856 165.46 61.124 165.196 61.364C164.932 61.604 164.62 61.792 164.26 61.928C163.908 62.056 163.528 62.12 163.12 62.12ZM160.816 58.58H165.436C165.404 58.124 165.28 57.724 165.064 57.38C164.856 57.036 164.58 56.768 164.236 56.576C163.9 56.376 163.528 56.276 163.12 56.276C162.712 56.276 162.34 56.376 162.004 56.576C161.668 56.768 161.392 57.04 161.176 57.392C160.968 57.736 160.848 58.132 160.816 58.58ZM170.583 56.468C170.039 56.484 169.559 56.636 169.143 56.924C168.735 57.212 168.447 57.608 168.279 58.112V62H167.463V55.748H168.231V57.248C168.447 56.808 168.731 56.452 169.083 56.18C169.443 55.908 169.823 55.756 170.223 55.724C170.303 55.716 170.371 55.712 170.427 55.712C170.491 55.712 170.543 55.716 170.583 55.724V56.468ZM176.499 62.12C175.987 62.12 175.511 62.036 175.071 61.868C174.631 61.7 174.251 61.444 173.931 61.1L174.267 60.524C174.619 60.852 174.971 61.092 175.323 61.244C175.683 61.388 176.063 61.46 176.463 61.46C176.951 61.46 177.347 61.364 177.651 61.172C177.955 60.972 178.107 60.688 178.107 60.32C178.107 60.072 178.031 59.884 177.879 59.756C177.735 59.62 177.523 59.512 177.243 59.432C176.971 59.344 176.643 59.252 176.259 59.156C175.827 59.036 175.463 58.912 175.167 58.784C174.879 58.648 174.659 58.48 174.507 58.28C174.363 58.072 174.291 57.804 174.291 57.476C174.291 57.068 174.391 56.732 174.591 56.468C174.799 56.196 175.079 55.992 175.431 55.856C175.791 55.712 176.191 55.64 176.631 55.64C177.111 55.64 177.535 55.716 177.903 55.868C178.271 56.02 178.571 56.232 178.803 56.504L178.407 57.056C178.183 56.8 177.915 56.612 177.603 56.492C177.299 56.364 176.959 56.3 176.583 56.3C176.327 56.3 176.083 56.336 175.851 56.408C175.619 56.472 175.427 56.584 175.275 56.744C175.131 56.896 175.059 57.108 175.059 57.38C175.059 57.604 175.115 57.78 175.227 57.908C175.339 58.028 175.507 58.132 175.731 58.22C175.955 58.3 176.231 58.388 176.559 58.484C177.031 58.612 177.443 58.744 177.795 58.88C178.147 59.008 178.419 59.176 178.611 59.384C178.803 59.592 178.899 59.884 178.899 60.26C178.899 60.844 178.679 61.3 178.239 61.628C177.799 61.956 177.219 62.12 176.499 62.12ZM180.479 63.92C180.591 63.928 180.699 63.932 180.803 63.932C180.907 63.94 180.983 63.936 181.031 63.92C181.127 63.904 181.219 63.848 181.307 63.752C181.395 63.656 181.499 63.472 181.619 63.2C181.739 62.928 181.907 62.528 182.123 62L179.399 55.748H180.263L182.555 61.16L184.667 55.748H185.483L182.243 63.812C182.187 63.964 182.103 64.104 181.991 64.232C181.879 64.368 181.739 64.472 181.571 64.544C181.411 64.624 181.211 64.668 180.971 64.676C180.899 64.684 180.823 64.684 180.743 64.676C180.671 64.676 180.583 64.668 180.479 64.652V63.92ZM188.522 62.12C188.01 62.12 187.534 62.036 187.094 61.868C186.654 61.7 186.274 61.444 185.954 61.1L186.29 60.524C186.642 60.852 186.994 61.092 187.346 61.244C187.706 61.388 188.086 61.46 188.486 61.46C188.974 61.46 189.37 61.364 189.674 61.172C189.978 60.972 190.13 60.688 190.13 60.32C190.13 60.072 190.054 59.884 189.902 59.756C189.758 59.62 189.546 59.512 189.266 59.432C188.994 59.344 188.666 59.252 188.282 59.156C187.85 59.036 187.486 58.912 187.19 58.784C186.902 58.648 186.682 58.48 186.53 58.28C186.386 58.072 186.314 57.804 186.314 57.476C186.314 57.068 186.414 56.732 186.614 56.468C186.822 56.196 187.102 55.992 187.454 55.856C187.814 55.712 188.214 55.64 188.654 55.64C189.134 55.64 189.558 55.716 189.926 55.868C190.294 56.02 190.594 56.232 190.826 56.504L190.43 57.056C190.206 56.8 189.938 56.612 189.626 56.492C189.322 56.364 188.982 56.3 188.606 56.3C188.35 56.3 188.106 56.336 187.874 56.408C187.642 56.472 187.45 56.584 187.298 56.744C187.154 56.896 187.082 57.108 187.082 57.38C187.082 57.604 187.138 57.78 187.25 57.908C187.362 58.028 187.53 58.132 187.754 58.22C187.978 58.3 188.254 58.388 188.582 58.484C189.054 58.612 189.466 58.744 189.818 58.88C190.17 59.008 190.442 59.176 190.634 59.384C190.826 59.592 190.922 59.884 190.922 60.26C190.922 60.844 190.702 61.3 190.262 61.628C189.822 61.956 189.242 62.12 188.522 62.12ZM195.271 61.7C195.207 61.724 195.107 61.768 194.971 61.832C194.835 61.896 194.671 61.952 194.479 62C194.287 62.048 194.079 62.072 193.855 62.072C193.623 62.072 193.403 62.028 193.195 61.94C192.995 61.852 192.835 61.72 192.715 61.544C192.595 61.36 192.535 61.136 192.535 60.872V56.396H191.671V55.748H192.535V53.636H193.351V55.748H194.791V56.396H193.351V60.644C193.367 60.868 193.447 61.036 193.591 61.148C193.743 61.26 193.915 61.316 194.107 61.316C194.331 61.316 194.535 61.28 194.719 61.208C194.903 61.128 195.015 61.072 195.055 61.04L195.271 61.7ZM198.885 62.12C198.437 62.12 198.021 62.036 197.637 61.868C197.253 61.692 196.921 61.456 196.641 61.16C196.361 60.856 196.141 60.508 195.981 60.116C195.829 59.724 195.753 59.304 195.753 58.856C195.753 58.272 195.885 57.736 196.149 57.248C196.421 56.76 196.793 56.372 197.265 56.084C197.737 55.788 198.273 55.64 198.873 55.64C199.489 55.64 200.025 55.788 200.481 56.084C200.945 56.38 201.309 56.772 201.573 57.26C201.837 57.74 201.969 58.268 201.969 58.844C201.969 58.908 201.969 58.972 201.969 59.036C201.969 59.092 201.965 59.136 201.957 59.168H196.605C196.645 59.616 196.769 60.016 196.977 60.368C197.193 60.712 197.469 60.988 197.805 61.196C198.149 61.396 198.521 61.496 198.921 61.496C199.329 61.496 199.713 61.392 200.073 61.184C200.441 60.976 200.697 60.704 200.841 60.368L201.549 60.56C201.421 60.856 201.225 61.124 200.961 61.364C200.697 61.604 200.385 61.792 200.025 61.928C199.673 62.056 199.293 62.12 198.885 62.12ZM196.581 58.58H201.201C201.169 58.124 201.045 57.724 200.829 57.38C200.621 57.036 200.345 56.768 200.001 56.576C199.665 56.376 199.293 56.276 198.885 56.276C198.477 56.276 198.105 56.376 197.769 56.576C197.433 56.768 197.157 57.04 196.941 57.392C196.733 57.736 196.613 58.132 196.581 58.58ZM212.528 62H211.712V58.508C211.712 57.78 211.596 57.244 211.364 56.9C211.132 56.556 210.788 56.384 210.332 56.384C209.86 56.384 209.436 56.552 209.06 56.888C208.692 57.224 208.432 57.656 208.28 58.184V62H207.464V58.508C207.464 57.772 207.352 57.236 207.128 56.9C206.904 56.556 206.56 56.384 206.096 56.384C205.632 56.384 205.212 56.548 204.836 56.876C204.46 57.204 204.196 57.636 204.044 58.172V62H203.228V55.748H203.972V57.164C204.236 56.676 204.572 56.3 204.98 56.036C205.396 55.772 205.856 55.64 206.36 55.64C206.88 55.64 207.3 55.788 207.62 56.084C207.94 56.38 208.136 56.768 208.208 57.248C208.496 56.72 208.84 56.32 209.24 56.048C209.648 55.776 210.108 55.64 210.62 55.64C210.972 55.64 211.268 55.704 211.508 55.832C211.756 55.96 211.952 56.144 212.096 56.384C212.248 56.616 212.356 56.9 212.42 57.236C212.492 57.564 212.528 57.932 212.528 58.34V62Z" fill="#A3A3A3"/>
<path d="M91.81 36.21C89.27 36.21 87.17 35.62 85.51 34.44C83.87 33.24 82.98 31.49 82.84 29.19H89.92C90.02 30.41 90.56 31.02 91.54 31.02C91.9 31.02 92.2 30.94 92.44 30.78C92.7 30.6 92.83 30.33 92.83 29.97C92.83 29.47 92.56 29.07 92.02 28.77C91.48 28.45 90.64 28.09 89.5 27.69C88.14 27.21 87.01 26.74 86.11 26.28C85.23 25.82 84.47 25.15 83.83 24.27C83.19 23.39 82.88 22.26 82.9 20.88C82.9 19.5 83.25 18.33 83.95 17.37C84.67 16.39 85.64 15.65 86.86 15.15C88.1 14.65 89.49 14.4 91.03 14.4C93.63 14.4 95.69 15 97.21 16.2C98.75 17.4 99.56 19.09 99.64 21.27H92.47C92.45 20.67 92.3 20.24 92.02 19.98C91.74 19.72 91.4 19.59 91 19.59C90.72 19.59 90.49 19.69 90.31 19.89C90.13 20.07 90.04 20.33 90.04 20.67C90.04 21.15 90.3 21.55 90.82 21.87C91.36 22.17 92.21 22.54 93.37 22.98C94.71 23.48 95.81 23.96 96.67 24.42C97.55 24.88 98.31 25.52 98.95 26.34C99.59 27.16 99.91 28.19 99.91 29.43C99.91 30.73 99.59 31.9 98.95 32.94C98.31 33.96 97.38 34.76 96.16 35.34C94.94 35.92 93.49 36.21 91.81 36.21ZM121.9 14.76V36H115.24V27.72H108.91V36H102.25V14.76H108.91V22.41H115.24V14.76H121.9ZM135.246 36.21C133.246 36.21 131.406 35.74 129.726 34.8C128.066 33.86 126.746 32.56 125.766 30.9C124.786 29.24 124.296 27.37 124.296 25.29C124.296 23.21 124.786 21.34 125.766 19.68C126.746 18.02 128.066 16.73 129.726 15.81C131.406 14.87 133.246 14.4 135.246 14.4C137.246 14.4 139.076 14.87 140.736 15.81C142.396 16.73 143.706 18.02 144.666 19.68C145.646 21.34 146.136 23.21 146.136 25.29C146.136 27.37 145.646 29.24 144.666 30.9C143.706 32.56 142.386 33.86 140.706 34.8C139.046 35.74 137.226 36.21 135.246 36.21ZM135.246 30C136.566 30 137.586 29.58 138.306 28.74C139.026 27.88 139.386 26.73 139.386 25.29C139.386 23.83 139.026 22.68 138.306 21.84C137.586 20.98 136.566 20.55 135.246 20.55C133.906 20.55 132.876 20.98 132.156 21.84C131.436 22.68 131.076 23.83 131.076 25.29C131.076 26.73 131.436 27.88 132.156 28.74C132.876 29.58 133.906 30 135.246 30ZM179.139 14.76L174.279 36H165.999L163.539 23.94L161.079 36H152.799L147.939 14.76H155.109L157.029 28.14L159.909 14.76H167.169L170.049 28.14L171.969 14.76H179.139ZM188.187 20.07V22.68H194.787V27.69H188.187V30.69H195.687V36H181.527V14.76H195.687V20.07H188.187ZM208.877 36L204.887 28.38H204.857V36H198.197V14.76H208.097C209.817 14.76 211.287 15.07 212.507 15.69C213.727 16.29 214.637 17.12 215.237 18.18C215.857 19.22 216.167 20.4 216.167 21.72C216.167 23.14 215.767 24.4 214.967 25.5C214.187 26.6 213.057 27.39 211.577 27.87L216.197 36H208.877ZM204.857 23.94H207.497C208.137 23.94 208.617 23.8 208.937 23.52C209.257 23.22 209.417 22.76 209.417 22.14C209.417 21.58 209.247 21.14 208.907 20.82C208.587 20.5 208.117 20.34 207.497 20.34H204.857V23.94Z" fill="#464255"/>
</svg>
