<svg width="80" height="80" viewBox="0 0 80 80" fill="none" xmlns="http://www.w3.org/2000/svg">
<rect width="80" height="80" rx="18" fill="#ECEAF3"/>
<path d="M53.4811 48.8312C54.4547 47.6691 54.9918 46.2034 54.9999 44.6874C54.9999 42.9469 54.3085 41.2778 53.0778 40.047C51.847 38.8163 50.1778 38.1249 48.4374 38.1249H47.9124C49.4587 36.2874 50.3084 33.964 50.3124 31.5624C50.3167 29.831 49.8851 28.1263 49.0572 26.6055C48.2293 25.0848 47.0318 23.797 45.5752 22.8609C44.1186 21.9248 42.4497 21.3705 40.7225 21.2492C38.9953 21.1279 37.2653 21.4434 35.6921 22.1667C34.1189 22.89 32.7532 23.9977 31.7209 25.3878C30.6885 26.7779 30.0228 28.4055 29.785 30.1206C29.5473 31.8356 29.7453 33.583 30.3606 35.2014C30.976 36.8198 31.989 38.2573 33.3061 39.3812C29.7629 40.7354 26.7137 43.1324 24.5611 46.2557C22.4086 49.379 21.2541 53.0817 21.2499 56.8749C21.2499 57.3722 21.4474 57.8491 21.799 58.2008C22.1507 58.5524 22.6276 58.7499 23.1249 58.7499C23.6221 58.7499 24.0991 58.5524 24.4507 58.2008C24.8023 57.8491 24.9999 57.3722 24.9999 56.8749C24.9999 52.8967 26.5802 49.0814 29.3933 46.2683C32.2063 43.4553 36.0216 41.8749 39.9999 41.8749H42.5311C41.9819 42.9925 41.7709 44.246 41.9242 45.4818C42.0774 46.7175 42.5881 47.8816 43.3936 48.8312C41.7963 49.7246 40.466 51.0278 39.5399 52.6065C38.6138 54.1851 38.1253 55.9822 38.1249 57.8124C38.1249 58.3097 38.3224 58.7866 38.674 59.1383C39.0257 59.4899 39.5026 59.6874 39.9999 59.6874C40.4971 59.6874 40.9741 59.4899 41.3257 59.1383C41.6773 58.7866 41.8749 58.3097 41.8749 57.8124C41.8749 56.0719 42.5663 54.4027 43.797 53.172C45.0277 51.9413 46.6969 51.2499 48.4374 51.2499C50.1778 51.2499 51.847 51.9413 53.0778 53.172C54.3085 54.4027 54.9999 56.0719 54.9999 57.8124C54.9999 58.3097 55.1974 58.7866 55.549 59.1383C55.9007 59.4899 56.3776 59.6874 56.8749 59.6874C57.3721 59.6874 57.8491 59.4899 58.2007 59.1383C58.5523 58.7866 58.7499 58.3097 58.7499 57.8124C58.7494 55.9822 58.2609 54.1851 57.3348 52.6065C56.4087 51.0278 55.0785 49.7246 53.4811 48.8312ZM39.9999 38.1249C38.7019 38.1249 37.4331 37.74 36.3539 37.019C35.2747 36.2979 34.4336 35.2729 33.9369 34.0738C33.4402 32.8747 33.3102 31.5552 33.5635 30.2822C33.8167 29.0092 34.4417 27.8398 35.3595 26.922C36.2773 26.0043 37.4466 25.3792 38.7196 25.126C39.9926 24.8728 41.3121 25.0028 42.5112 25.4995C43.7104 25.9962 44.7353 26.8373 45.4564 27.9165C46.1775 28.9957 46.5624 30.2645 46.5624 31.5624C46.5624 33.3029 45.871 34.9721 44.6403 36.2028C43.4095 37.4335 41.7403 38.1249 39.9999 38.1249ZM48.4374 47.4999C47.6914 47.4999 46.9761 47.2036 46.4486 46.6762C45.9212 46.1487 45.6249 45.4334 45.6249 44.6874C45.6298 43.943 45.9277 43.2305 46.4541 42.7041C46.9804 42.1777 47.693 41.8798 48.4374 41.8749C49.1833 41.8749 49.8987 42.1712 50.4261 42.6987C50.9535 43.2261 51.2499 43.9415 51.2499 44.6874C51.2499 45.4334 50.9535 46.1487 50.4261 46.6762C49.8987 47.2036 49.1833 47.4999 48.4374 47.4999Z" fill="#464255"/>
</svg>
