<svg width="46" height="46" viewBox="0 0 46 46" fill="none" xmlns="http://www.w3.org/2000/svg">
<path d="M36.4811 31.8312C37.4547 30.6691 37.9919 29.2034 37.9999 27.6874C37.9999 25.9469 37.3085 24.2778 36.0778 23.047C34.8471 21.8163 33.1779 21.1249 31.4374 21.1249H30.9124C32.4587 19.2874 33.3084 16.964 33.3124 14.5624C33.3168 12.831 32.8851 11.1263 32.0572 9.60553C31.2293 8.0848 30.0318 6.79701 28.5752 5.86092C27.1186 4.92482 25.4497 4.37055 23.7225 4.24923C21.9953 4.1279 20.2653 4.44343 18.6921 5.16671C17.119 5.88999 15.7532 6.99773 14.7209 8.38779C13.6885 9.77785 13.0228 11.4055 12.7851 13.1206C12.5473 14.8356 12.7453 16.583 13.3607 18.2014C13.976 19.8198 14.989 21.2573 16.3061 22.3812C12.7629 23.7354 9.71367 26.1324 7.56116 29.2557C5.40865 32.379 4.25407 36.0817 4.24988 39.8749H7.99988C7.99988 35.8967 9.58023 32.0814 12.3933 29.2683C15.2063 26.4553 19.0216 24.8749 22.9999 24.8749H25.5311C24.9819 25.9925 24.7709 27.246 24.9242 28.4818C25.0774 29.7175 25.5881 30.8816 26.3936 31.8312C24.7963 32.7246 23.466 34.0278 22.5399 35.6065C21.6138 37.1851 21.1253 38.9822 21.1249 40.8124H24.8749C24.8749 39.0719 25.5663 37.4027 26.797 36.172C28.0277 34.9413 29.6969 34.2499 31.4374 34.2499C33.1779 34.2499 34.8471 34.9413 36.0778 36.172C37.3085 37.4027 37.9999 39.0719 37.9999 40.8124H41.7499C41.7494 38.9822 41.261 37.1851 40.3349 35.6065C39.4088 34.0278 38.0785 32.7246 36.4811 31.8312ZM22.9999 21.1249C21.7019 21.1249 20.4331 20.74 19.3539 20.019C18.2748 19.2979 17.4336 18.2729 16.9369 17.0738C16.4402 15.8747 16.3103 14.5552 16.5635 13.2822C16.8167 12.0092 17.4417 10.8398 18.3595 9.92204C19.2773 9.00426 20.4466 8.37924 21.7196 8.12603C22.9926 7.87281 24.3121 8.00277 25.5112 8.49947C26.7104 8.99617 27.7353 9.8373 28.4564 10.9165C29.1775 11.9957 29.5624 13.2645 29.5624 14.5624C29.5624 16.3029 28.871 17.9721 27.6403 19.2028C26.4096 20.4335 24.7404 21.1249 22.9999 21.1249ZM31.4374 30.4999C30.6915 30.4999 29.9761 30.2036 29.4486 29.6762C28.9212 29.1487 28.6249 28.4334 28.6249 27.6874C28.6298 26.943 28.9277 26.2305 29.4541 25.7041C29.9805 25.1777 30.693 24.8798 31.4374 24.8749C32.1833 24.8749 32.8987 25.1712 33.4261 25.6987C33.9536 26.2261 34.2499 26.9415 34.2499 27.6874C34.2499 28.4334 33.9536 29.1487 33.4261 29.6762C32.8987 30.2036 32.1833 30.4999 31.4374 30.4999Z" fill="#464255"/>
</svg>
