<svg width="20" height="19" viewBox="0 0 20 19" fill="none" xmlns="http://www.w3.org/2000/svg">
<path d="M3.94731 10.2917H9.48897V15.8333C9.48897 16.0433 9.57238 16.2447 9.72085 16.3931C9.86931 16.5416 10.0707 16.625 10.2806 16.625C10.4906 16.625 10.692 16.5416 10.8404 16.3931C10.9889 16.2447 11.0723 16.0433 11.0723 15.8333V10.2917H16.614C16.8239 10.2917 17.0253 10.2083 17.1738 10.0598C17.3222 9.91133 17.4056 9.70996 17.4056 9.5C17.4056 9.29004 17.3222 9.08867 17.1738 8.94021C17.0253 8.79174 16.8239 8.70833 16.614 8.70833H11.0723V3.16667C11.0723 2.9567 10.9889 2.75534 10.8404 2.60687C10.692 2.45841 10.4906 2.375 10.2806 2.375C10.0707 2.375 9.86931 2.45841 9.72085 2.60687C9.57238 2.75534 9.48897 2.9567 9.48897 3.16667V8.70833H3.94731C3.73734 8.70833 3.53598 8.79174 3.38751 8.94021C3.23905 9.08867 3.15564 9.29004 3.15564 9.5C3.15564 9.70996 3.23905 9.91133 3.38751 10.0598C3.53598 10.2083 3.73734 10.2917 3.94731 10.2917Z" fill="#464255"/>
</svg>
