<svg width="80" height="80" viewBox="0 0 80 80" fill="none" xmlns="http://www.w3.org/2000/svg">
<rect width="80" height="80" rx="18" fill="#ECEAF3"/>
<path d="M53.1249 23.125H26.8749C25.3831 23.125 23.9523 23.7176 22.8974 24.7725C21.8426 25.8274 21.2499 27.2582 21.2499 28.75V51.25C21.2499 52.7418 21.8426 54.1726 22.8974 55.2275C23.9523 56.2824 25.3831 56.875 26.8749 56.875H53.1249C54.6168 56.875 56.0475 56.2824 57.1024 55.2275C58.1573 54.1726 58.7499 52.7418 58.7499 51.25V28.75C58.7499 27.2582 58.1573 25.8274 57.1024 24.7725C56.0475 23.7176 54.6168 23.125 53.1249 23.125ZM54.9999 51.25C54.9999 51.7473 54.8024 52.2242 54.4507 52.5758C54.0991 52.9275 53.6222 53.125 53.1249 53.125H26.8749C26.3776 53.125 25.9007 52.9275 25.5491 52.5758C25.1975 52.2242 24.9999 51.7473 24.9999 51.25V28.75C24.9999 28.2527 25.1975 27.7758 25.5491 27.4242C25.9007 27.0725 26.3776 26.875 26.8749 26.875H53.1249C53.6222 26.875 54.0991 27.0725 54.4507 27.4242C54.8024 27.7758 54.9999 28.2527 54.9999 28.75V51.25Z" fill="#464255"/>
<path d="M48.4374 38.3689L35.3124 30.8689C35.0274 30.7044 34.704 30.6177 34.3749 30.6177C34.0458 30.6177 33.7224 30.7044 33.4374 30.8689C33.1513 31.0341 32.9139 31.272 32.7492 31.5585C32.5846 31.8449 32.4986 32.1698 32.4999 32.5002V47.5002C32.4986 47.8306 32.5846 48.1555 32.7492 48.4419C32.9139 48.7284 33.1513 48.9663 33.4374 49.1314C33.7231 49.2934 34.0464 49.3775 34.3749 49.3752C34.7033 49.3775 35.0266 49.2934 35.3124 49.1314L48.4374 41.6314C48.7259 41.4679 48.966 41.2308 49.133 40.9442C49.2999 40.6576 49.3879 40.3319 49.3879 40.0002C49.3879 39.6685 49.2999 39.3428 49.133 39.0562C48.966 38.7696 48.7259 38.5325 48.4374 38.3689ZM36.2499 44.2752V35.7252L43.7499 40.0002L36.2499 44.2752Z" fill="#464255"/>
</svg>
