<svg width="46" height="46" viewBox="0 0 46 46" fill="none" xmlns="http://www.w3.org/2000/svg">
<path d="M36.1249 6.125H9.87488C8.38303 6.125 6.95229 6.71763 5.8974 7.77252C4.84251 8.82742 4.24988 10.2582 4.24988 11.75V34.25C4.24988 35.7418 4.84251 37.1726 5.8974 38.2275C6.95229 39.2824 8.38303 39.875 9.87488 39.875H36.1249C37.6167 39.875 39.0475 39.2824 40.1023 38.2275C41.1572 37.1726 41.7499 35.7418 41.7499 34.25V11.75C41.7499 10.2582 41.1572 8.82742 40.1023 7.77252C39.0475 6.71763 37.6167 6.125 36.1249 6.125ZM37.9999 34.25C37.9999 34.7473 37.8023 35.2242 37.4507 35.5758C37.0991 35.9275 36.6222 36.125 36.1249 36.125H9.87488C9.3776 36.125 8.90068 35.9275 8.54905 35.5758C8.19742 35.2242 7.99988 34.7473 7.99988 34.25V11.75C7.99988 11.2527 8.19742 10.7758 8.54905 10.4242C8.90068 10.0725 9.3776 9.875 9.87488 9.875H36.1249C36.6222 9.875 37.0991 10.0725 37.4507 10.4242C37.8023 10.7758 37.9999 11.2527 37.9999 11.75V34.25Z" fill="#464255"/>
<path d="M18 30V17L29 23.5L18 30Z" fill="#464255"/>
</svg>
