<svg width="45" height="45" viewBox="0 0 45 45" fill="none" xmlns="http://www.w3.org/2000/svg">
<path d="M11.25 39.3751H33.75C35.2418 39.3751 36.6726 38.7824 37.7275 37.7275C38.7824 36.6726 39.375 35.2419 39.375 33.7501V11.2501C39.375 9.75822 38.7824 8.32748 37.7275 7.27259C36.6726 6.21769 35.2418 5.62506 33.75 5.62506H31.875C31.875 5.12778 31.6775 4.65087 31.3258 4.29924C30.9742 3.94761 30.4973 3.75006 30 3.75006C29.5027 3.75006 29.0258 3.94761 28.6742 4.29924C28.3225 4.65087 28.125 5.12778 28.125 5.62506H16.875C16.875 5.12778 16.6775 4.65087 16.3258 4.29924C15.9742 3.94761 15.4973 3.75006 15 3.75006C14.5027 3.75006 14.0258 3.94761 13.6742 4.29924C13.3225 4.65087 13.125 5.12778 13.125 5.62506H11.25C9.75816 5.62506 8.32742 6.21769 7.27252 7.27259C6.21763 8.32748 5.625 9.75822 5.625 11.2501V33.7501C5.625 35.2419 6.21763 36.6726 7.27252 37.7275C8.32742 38.7824 9.75816 39.3751 11.25 39.3751ZM9.375 11.2501C9.375 10.7528 9.57254 10.2759 9.92418 9.92424C10.2758 9.57261 10.7527 9.37506 11.25 9.37506H13.125V11.2501C13.125 11.7473 13.3225 12.2243 13.6742 12.5759C14.0258 12.9275 14.5027 13.1251 15 13.1251C15.4973 13.1251 15.9742 12.9275 16.3258 12.5759C16.6775 12.2243 16.875 11.7473 16.875 11.2501V9.37506H28.125V11.2501C28.125 11.7473 28.3225 12.2243 28.6742 12.5759C29.0258 12.9275 29.5027 13.1251 30 13.1251C30.4973 13.1251 30.9742 12.9275 31.3258 12.5759C31.6775 12.2243 31.875 11.7473 31.875 11.2501V9.37506H33.75C34.2473 9.37506 34.7242 9.57261 35.0758 9.92424C35.4275 10.2759 35.625 10.7528 35.625 11.2501V16.8751H9.375V11.2501ZM9.375 20.6251H35.625V33.7501C35.625 34.2473 35.4275 34.7243 35.0758 35.0759C34.7242 35.4275 34.2473 35.6251 33.75 35.6251H11.25C10.7527 35.6251 10.2758 35.4275 9.92418 35.0759C9.57254 34.7243 9.375 34.2473 9.375 33.7501V20.6251Z" fill="#464255"/>
</svg>
